<?xml version="1.0" encoding="UTF-8" standalone="no"?><!--Generator: Adobe Illustrator 25.0.1, SVG Export Plug-In . SVG Version: 6.00 Build 0)--><svg version="1.1" x="0px" y="0px" viewBox="0 0 400.79001 124.39436" xml:space="preserve" id="svg108" width="400.79001" height="124.39436" xmlns="http://www.w3.org/2000/svg" xmlns:svg="http://www.w3.org/2000/svg"><defs id="defs108"/><style type="text/css" id="style1">.st13{fill:#FFFFFF;stroke:#231F20;stroke-miterlimit:10}</style><g id="Layer_1_copy" transform="translate(-311.54,-297.91254)"><g id="g108"><g id="g57"><polygon points="352.88,306.56 351.18,314.8 341.9,314.8 341.99,314.43 343.76,306.56 " id="polygon55" style="fill:#010000"/><polygon points="334.59,311.01 333.77,318.88 324.19,318.88 324.25,318.48 325.24,311.01 " id="polygon56" style="fill:#010000"/><path d="m 407.82,338.25 c -0.16,-0.27 -0.35,-0.57 -0.55,-0.82 -0.16,-0.22 -0.33,-0.44 -0.49,-0.64 0.2,0.2 0.37,0.42 0.53,0.64 0.18,0.25 0.35,0.53 0.51,0.82 z" id="path56" style="fill:none;stroke:#8DC63F;stroke-width:0.25;stroke-miterlimit:10"/><polygon points="336.88,374.83 339.26,366.44 340.32,362.71 374.45,362.71 371.13,374.2 357.84,374.2 353.17,389.88 332.62,389.88 333.18,387.86 335.05,381.27 342.94,381.27 343.33,376.62 336.37,376.62 " id="polygon57"/></g><polygon points="318.12,318.48 319.02,311.01 325.24,311.01 324.25,318.48 " id="polygon58" style="fill:#2FF9EE"/><polygon points="339,306.56 343.76,306.56 341.99,314.43 337.03,314.43 " id="polygon59" style="fill:#2FF9EE"/><path d="m 437.19,335.01 h 3.52 c -2.95,-14.63 -15.49,-25.19 -34.66,-27.1 20.93,1.85 40.15,12.54 42.31,30.19 h -11.17 z" id="path59" style="fill:#EE1782"/><path d="m 406.05,307.91 c -0.05,-0.02 -0.13,-0.02 -0.18,-0.02 -3.44,-0.29 -6.94,-0.35 -10.4,-0.16" id="path60" style="fill:none;stroke:#8DC63F;stroke-width:0.25;stroke-miterlimit:10"/><polygon points="435.43,338.17 435.43,341.78 454.09,341.78 452.29,347.66 437.52,347.66 437.52,349.18 429.06,349.18 429.06,348.61 416.35,348.61 416.63,341.84 427.27,341.84 426.55,338.17 " id="polygon60" style="fill:#EE1782"/><line x1="437.51999" y1="349.70999" x2="437.51999" y2="349.17999" id="line60" style="fill:none;stroke:#8DC63F;stroke-width:0.25;stroke-miterlimit:10"/><path d="m 446.76,374.72 h -13.27 c -2.05,5.25 -5.42,11.17 -8.81,14.92 v -0.79 h -8.53 c 3.73,-4.81 6.59,-9.81 8.15,-15.14 h 14.81 c 1.01,-3.42 1.78,-7.05 2.25,-10.86 h -4.32 l 1.3,-13.68 h 6.04 v 2.25 h 6.55 c 0.63,7.88 -0.54,15.66 -4.17,23.3 z" id="path61" style="fill:#EE1782"/><path d="m 439.55,389.77 v 1.17 c -10.34,16.68 -35.02,31.95 -62.19,30.21 h -49.74 v -2.47 h 44.6 c 23.65,0.42 46.01,-9.1 58.77,-27.74 h -0.37 v -1.17 z" id="path62" style="fill:#EE1782"/><line x1="430.62" y1="391.12" x2="430.62" y2="390.94" id="line62" style="fill:none;stroke:#8DC63F;stroke-width:0.25;stroke-miterlimit:10"/><polygon points="348.45,314.8 351.18,314.8 352.88,306.56 354.57,306.56 355.34,307.73 346.66,338.67 341.99,338.67 " id="polygon62" style="fill:#2FF9EE"/><polygon points="320.31,418.67 326.63,395.39 331.04,395.39 324.43,418.67 " id="polygon63" style="fill:#2FF9EE"/><polygon points="328.66,387.86 332.19,374.83 336.88,374.83 336.37,376.62 335.05,381.27 333.18,387.86 " id="polygon64" style="fill:#2FF9EE"/><polygon points="340.32,362.71 339.26,366.44 334.46,366.44 338.95,349.89 343.51,349.89 341.84,355.8 361.76,355.8 360.5,362.71 " id="polygon65" style="fill:#2FF9EE"/><path d="m 406.63,336.62 c -3.79,-4.05 -12.01,-3.95 -20.74,-3.35 l -1.41,6 h -3.84 l -2.8,11.63 h 7.71 l -6.19,24.62 H 367.2 l -3.35,14.81 h 6.54 l -1.03,5.07 c -0.09,0 -0.2,-0.02 -0.29,-0.02 h -15.51 l 1.13,-5.51 h -1.52 l 4.67,-15.67 h 13.29 l 3.31,-11.5 H 360.5 l 1.26,-6.9 h 8.93 l 1.52,-5.71 h -11.09 l 2.91,-11.22 h 12.98 l 2,-8.42 h 10.8 c 7.54,0.09 13.36,1.94 16.82,6.17 z" id="path65" style="fill:#EE1782"/><polygon points="333.7,338.67 338.03,338.67 334.92,349.89 329.65,349.89 " id="polygon66" style="fill:#2FF9EE"/><polygon points="321.45,360.89 322.44,356.17 331.21,356.17 330.33,360.89 " id="polygon67" style="fill:#EE1782"/><polygon points="324.43,374.83 326.32,366.44 339.26,366.44 336.88,374.83 " id="polygon68" style="fill:#EE1782"/><polygon points="331.04,395.39 332.62,389.88 354.69,389.88 353.56,395.39 " id="polygon69" style="fill:#2FF9EE"/><polygon points="333.18,387.86 332.62,389.88 331.04,395.39 311.54,395.39 313.41,387.86 " id="polygon70" style="fill:#EE1782"/><polygon points="335.05,381.27 336.37,376.62 343.33,376.62 342.94,381.27 " id="polygon71" style="fill:#EE1782"/><path d="m 424.3,373.71 c -1.56,5.33 -4.41,10.33 -8.15,15.14 h 8.53 v 0.79 h -0.7 v 1.3 h 6.99 c -12.76,18.64 -35.11,28.16 -58.77,27.74 h -47.78 l 6.61,-23.29 h 38.02 c 0.09,0 0.2,0.02 0.29,0.02 11.13,0.77 20.65,-0.49 26.58,-6.17 h -6.63 l 5.77,-15.27 h 14.19 c 1.39,-2.34 2.47,-5 3.26,-7.91 h 1.92 v -1.83 l -1.46,0.07 c 1.03,-4.56 1.45,-9.7 1.39,-15.29 h -4.71 l -4.23,-10.76 h 2.38 c -0.09,-0.16 -0.18,-0.33 -0.29,-0.48 -0.06,-0.13 -0.15,-0.24 -0.22,-0.35 -0.16,-0.22 -0.33,-0.44 -0.53,-0.64 -0.04,-0.05 -0.09,-0.11 -0.15,-0.16 -3.46,-4.23 -9.28,-6.08 -16.82,-6.17 h -10.8 l -2,8.42 h -12.98 l -2.91,11.22 h 11.09 l -1.52,5.71 h -28.85 l 1.67,-5.91 h -8.59 l 3.11,-11.22 h 8.62 l 8.68,-30.94 h 40.13 c 3.64,-0.22 7.12,-0.15 10.4,0.16 0.06,0 0.13,0 0.18,0.02 19.17,1.9 31.71,12.47 34.66,27.1 h -3.52 v 3.17 h -10.64 l 0.71,3.66 h -10.64 l -0.27,6.77 h 12.71 v 0.57 h 9.28 l -1.3,13.68 h 4.32 c -0.48,3.81 -1.24,7.43 -2.25,10.86 H 424.3 Z" id="path71" style="fill:#010000"/><path d="m 409.67,349.01 -4.87,0.02 c -1.26,-6.15 -4.19,-11.61 -4.19,-11.61 h 6.7 c 0.18,0.26 0.35,0.53 0.51,0.82 h -2.38 z" id="path72" style="fill:#2FF9EE"/><path d="m 414.45,364.23 v 1.83 h -1.92 c -0.79,2.91 -1.87,5.57 -3.26,7.91 h -4.89 c 5.07,-8.99 7.21,-17.39 5.29,-24.95 h 4.71 c 0.05,5.58 -0.37,10.73 -1.39,15.29 z" id="path73" style="fill:#2FF9EE"/><polygon points="383.58,389.23 389.81,373.97 395.08,373.97 389.31,389.23 " id="polygon73" style="fill:#2FF9EE"/><line x1="360.5" y1="362.70999" x2="360.10999" y2="364.78" id="line73" style="fill:none"/><line x1="361.98001" y1="354.64999" x2="361.76001" y2="355.79999" id="line74" style="fill:none"/><path d="m 655.08,376.49 -1.39,6.59 h -21.51 l -0.77,3.11 h -4.08 l 0.16,-0.68 2.09,-8.44 4.69,-18.93 c 0.7,-0.16 2.75,-0.79 4.17,-2.42 h 0.44 l -5.05,20.76 h 21.25 z" id="path74" style="fill:#2FF9EE"/><g id="g104"><path d="m 498.35,349.16 c 1.37,-2.32 2.91,-4.72 4.87,-6.79 h -6.1 l -0.77,6.79 z" id="path75" style="fill:none"/><polygon points="537.57,342.07 534.93,350.61 541.08,350.61 543.74,342.07 " id="polygon75" style="fill:none"/><path d="m 651.15,419.95 c -2,0.02 -3.95,-0.07 -5.84,-0.31 -0.6,-0.07 -1.19,-0.15 -1.78,-0.26 -6.57,-1.17 -12.65,-4.72 -15.93,-10.56 -3.13,-5.53 -3.42,-12.12 -0.79,-19.81 h 4.06 l 0.53,-2.82 h 7.19 l -0.77,3.46 h -7.08 c -2.6,7.56 -2.31,14.04 0.77,19.48 3.22,5.73 9.19,9.23 15.65,10.36 1.31,0.24 2.63,0.37 3.99,0.46 z" id="path76" style="fill:#2FF9EE"/><path d="m 468.79,376.53 h 7.95 l 1.79,-7.08 c 0.33,-1.26 0.79,-2.53 1.52,-3.63 4.85,-7.27 17.61,-8.4 31.03,-6.54 l 2.36,-8.68 h 7.71 5.68 l 2.34,-8.53 h -5.14 -1.01 -7.25 l 1.96,-7.23 0.37,-1.32 c -8.06,-1.72 -15.71,-0.07 -23.1,3.77 -2.93,1.5 -5.82,3.37 -8.68,5.51 l 2.58,-7.01 h -28.36 l -1.78,6.02 h 14.41 v 6.55 H 456.9 v 1.52 h 5.25 l -4.12,14.1 h -5.14 l -3.13,11.92 h -10.27 l -4.14,12.78 h 4.78 4.65 l -8.26,30.08 h 3.46 25.76 l 7.65,-28.85 0.37,-1.37 h -8.33 z m 20.7,-34.16 h 7.63 6.1 3.33 l -2.53,6.79 h -5.68 -2 -8.37 z" id="path77"/><polygon points="452.9,363.99 458.04,363.99 462.16,349.89 456.9,349.89 " id="polygon77" style="fill:#2FF9EE"/><polygon points="458.75,341.82 460.53,335.79 455.26,335.79 450.77,349.89 456.9,349.89 456.9,348.37 473.16,348.37 473.16,341.82 " id="polygon78" style="fill:#2FF9EE"/><polygon points="436.53,418.76 444.79,388.69 440.14,388.69 431.64,418.76 " id="polygon79" style="fill:#2FF9EE"/><path d="m 494.98,337.3 0.11,-1.5 h -6.21 l -2.58,7.01 c 2.86,-2.15 5.76,-4.01 8.68,-5.51 z" id="path79" style="fill:#EE1782"/><polygon points="487.99,349.16 496.36,349.16 497.13,342.37 489.49,342.37 " id="polygon80" style="fill:#EE1782"/><path d="m 504.03,349.16 2.53,-6.79 h -3.33 c -1.96,2.07 -3.5,4.47 -4.87,6.79 z" id="path80" style="fill:#2FF9EE"/><path d="m 513.44,350.61 -2.36,8.68 c -13.42,-1.87 -26.18,-0.73 -31.03,6.54 -0.73,1.1 -1.19,2.36 -1.52,3.63 l -1.79,7.08 h -7.95 l -3.35,12.01 h 8.33 l 2.97,-11.41 h 8.37 c 0.02,-0.07 0.02,-0.16 0.04,-0.26 0.71,-7.41 3.46,-12.45 13.53,-15.23 6.46,-1.79 14.11,-0.86 19.68,1.65 l 2.8,-12.69 z" id="path81" style="fill:#F12D9C"/><polygon points="517.72,334.84 515.76,342.07 523.01,342.07 524.61,334.84 " id="polygon81" style="fill:#F12D9C"/><rect x="518" y="386.98001" width="5.3600001" height="2.8699999" id="rect81" style="fill:#2FF9EE"/><path d="m 674.86,334.66 4.8,-19.99 0.48,-2.01 -29.51,0.38 -2.62,11.5 c -0.68,3.73 -2.07,5.27 -3.92,6.17 -5.57,2.71 -17.32,3.06 -25.39,3.06 h -1.36 c -4.17,0 -7.05,-0.02 -7.05,-0.02 0.62,-5.99 3.31,-9.26 7.8,-10.56 1.34,-0.38 2.73,-0.49 4.12,-0.46 l 10.95,0.2 5.66,-20.54 0.49,-1.79 h -20.19 c -2.38,0 -4.76,0.09 -7.12,0.42 -13.57,1.79 -24.17,8.62 -28.3,22.55 l -4.19,15.96 h -19.02 l 0.93,-4.12 -30.37,-0.13 -1.87,6.79 h 19.04 l -2.56,8.53 h -18.82 l -10.01,36.38 h 6.55 v 2.87 h -5.69 l -7.95,28.91 3.24,0.02 26.56,0.2 7.27,-29.29 h -2.4 v -2.6 h -5.55 l 3,-10.64 h 8.18 l 7.49,-27.42 6.57,-0.07 -0.93,5.95 h 11.57 l -8.26,31.84 h 7.16 l -0.66,2.91 h -6.57 l -7.36,28.91 h 29.2 l 7.41,-28.98 h -2.89 l 0.07,-2.69 h -4.87 l 3.13,-10.51 h 7.98 l 6.22,-23.18 4.25,-0.35 12.74,-1.06 -0.95,3.7 v 0.02 h 17.3 c -0.05,0.07 -0.13,0.15 -0.2,0.22 h 0.44 l -5.05,20.76 h 21.25 l -1.39,6.59 h -21.51 l -0.77,3.11 h 7.19 l -0.77,3.46 h -7.08 c -2.6,7.56 -2.31,14.04 0.77,19.48 3.22,5.73 9.19,9.23 15.65,10.36 1.3,0.24 2.62,0.37 3.97,0.46 7.14,0.51 14.99,-0.75 23.38,-3.26 l 4.6,-18.4 0.55,-2.16 c -3.17,0.4 -6.19,0.71 -8.84,0.75 h -0.02 c -3.81,0.04 -6.83,-0.53 -8.2,-2.33 -1.48,-1.61 -2.05,-4.06 -1.76,-7.32 h -5.42 l 2.54,-10.11 h 5.67 l 1.79,-8.07 h -7.47 v -1.56 h 8.29 l 2.62,-11.3 h 20.08 l 2.31,-10.33 h -26.91 l 1.74,-6.35 h 27 l 0.79,-3.97 0.18,-0.9 h -19.2 z m -49.16,12.56 h -37.07 l 1.39,-6.72 h 36.36 z" id="path82"/><path d="m 621.34,355.51 h -0.11 l -0.51,2.69 h 13.31 c 0,0 0.09,-0.02 0.24,-0.05 0.7,-0.16 2.75,-0.79 4.17,-2.42 0.07,-0.07 0.15,-0.15 0.2,-0.22 z" id="path83" style="fill:#F22998"/><polygon points="524.02,342.07 529.16,342.07 531.03,335.28 525.78,335.28 " id="polygon83" style="fill:#2FF9EE"/><polygon points="529.16,342.07 526.82,350.61 534.93,350.61 537.57,342.07 " id="polygon84" style="fill:#F22998"/><polygon points="543.74,342.07 541.08,350.61 545.64,350.61 548.2,342.07 " id="polygon85" style="fill:#2FF9EE"/><polygon points="561.4,335.41 560.47,339.53 568.49,339.53 569.5,335.41 " id="polygon86" style="fill:#2FF9EE"/><polygon points="521.15,350.61 518.34,363.29 511.55,386.95 516.81,386.98 526.82,350.61 " id="polygon87" style="fill:#2FF9EE"/><polygon points="509.72,418.76 517.67,389.86 512.6,389.86 504.52,418.76 " id="polygon88" style="fill:#35FBF4"/><polygon points="570.56,354.91 570.03,356.68 561.17,386.74 566.48,386.74 574.73,354.91 " id="polygon89" style="fill:#2FF9EE"/><polygon points="559.04,418.56 566.4,389.66 562.01,389.66 553.88,418.56 " id="polygon90" style="fill:#2FF9EE"/><polygon points="566.4,389.66 572.97,389.66 573.63,386.74 566.48,386.74 " id="polygon91" style="fill:#2FF9EE"/><polygon points="557.52,349.03 550.04,376.46 558.04,376.46 563.05,356.68 570.03,356.68 570.56,354.91 563.16,354.91 564.1,348.96 " id="polygon92" style="fill:#F22998"/><polygon points="550.04,376.46 541.85,376.46 538.85,387.09 544.4,387.09 544.4,389.69 546.79,389.69 " id="polygon93" style="fill:#F22998"/><polygon points="546.79,389.69 539.53,418.98 512.96,418.78 512.96,421.6 546.57,421.6 554.67,389.69 " id="polygon94" style="fill:#F22998"/><polygon points="599.08,376.38 591.1,376.38 587.97,386.89 592.84,386.89 592.76,389.58 595.66,389.58 " id="polygon95" style="fill:#F22998"/><polygon points="606.62,376.38 611.9,355.49 621.34,355.49 622.29,351.8 609.55,352.86 605.31,353.21 599.08,376.38 " id="polygon96" style="fill:#F22998"/><polygon points="595.66,389.58 588.24,418.56 562.78,418.56 562.78,421.6 595.2,421.6 603.29,389.58 " id="polygon97" style="fill:#F22998"/><polygon points="600.01,347.22 601.39,340.5 590.02,340.5 588.63,347.22 " id="polygon98" style="fill:#2FF9EE"/><polygon points="626.38,340.5 601.39,340.5 600.01,347.22 625.7,347.22 " id="polygon99" style="fill:#F92BA3"/><path d="m 539.2,308.04 c 0.05,-0.27 0.09,-0.55 0.16,-0.81 1.45,-6.68 6.22,-8.53 14.34,-9.14 -9.97,-0.18 -16.81,1.87 -18.97,10 l -3.31,13.65 h 4.95 z" id="path99" style="fill:#2FF9EE"/><path d="m 571.47,307.38 -3.83,14.66 h -29.47 l -0.71,2.93 h 37.16 l 3.58,-15.04 c 1.67,-6.88 -5.27,-10.32 -12.54,-11.02 4.14,1.31 6.93,3.9 5.81,8.47 z" id="path100" style="fill:#F92BA3"/><path d="m 539.36,307.24 c -0.07,0.26 -0.11,0.53 -0.16,0.81 l -2.83,13.71 -0.06,0.3 h 1.88 29.47 l 3.83,-14.66 c 1.11,-4.58 -1.67,-7.16 -5.8,-8.47 -0.96,-0.3 -1.99,-0.54 -3.06,-0.71 -1.97,-0.32 -3.98,-0.35 -5.97,-0.27 -1.02,0.04 -2,0.1 -2.94,0.17 -8.13,0.59 -12.91,2.44 -14.36,9.12 z" id="path101"/><path d="m 583.68,323.57 c 4.14,-13.93 14.74,-20.76 28.3,-22.55 2.36,-0.33 4.74,-0.42 7.12,-0.42 h 20.19 c -27.19,-3.72 -48.22,0.11 -57.76,18.03 -1.08,2.05 -1.89,4.23 -2.56,6.46 l -4.41,14.44 h 4.92 z" id="path102" style="fill:#1FFCF8"/><path d="m 646.04,302.38 -5.46,22.87 h -13.35 c -4.52,0 -8.38,3.35 -9.76,7.98 -0.05,0.16 -0.09,0.35 -0.15,0.53 -4.17,0 -7.05,-0.02 -7.05,-0.02 0.62,-5.99 3.31,-9.26 7.8,-10.56 1.34,-0.38 2.73,-0.49 4.12,-0.46 l 10.95,0.2 5.66,-20.54 z" id="path103" style="fill:#E71A8C"/><polygon points="473.4,389.91 465.75,418.76 439.99,418.76 439.99,421.4 472.89,421.4 481.31,389.91 " id="polygon103" style="fill:#F12D9C"/><polygon points="499.13,384.56 508.53,384.56 510.4,376.46 500.99,376.46 " id="polygon104" style="fill:#EE1884"/></g><path d="m 686.92,398.3 -4.5,20.91 c -16.88,4.39 -28.38,3.72 -37.11,0.44 1.89,0.24 3.84,0.33 5.84,0.31 7.14,0.51 14.99,-0.75 23.38,-3.26 l 4.6,-18.4 z" id="path104" style="fill:#F42F9A"/><polygon points="674.86,334.66 679.65,314.67 687.14,314.45 682.67,334.66 " id="polygon105" style="fill:#F42F9A"/><path d="m 712.33,339.99 -0.99,6.3 h -12.69 l -2.62,12.34 h -20.52 l -4.43,19.04 h -7.6 l -0.82,5.09 h 21.09 l -0.29,3.79 -21.99,0.13 v 1.25 h 6.52 v 6.22 c 0.15,1.14 1.14,2.29 2.82,2.75 -3.81,0.04 -6.83,-0.53 -8.2,-2.33 -1.48,-1.61 -2.05,-4.06 -1.76,-7.32 h -5.42 l 2.54,-10.11 h 5.67 l 1.79,-8.07 h -7.47 v -1.56 h 8.29 l 2.62,-11.3 h 20.08 l 2.31,-10.33 1.36,-6.35 h 0.48 l 0.79,-3.97 7.63,0.27 -0.29,4.16 z" id="path105" style="fill:#F42F9A"/><polygon points="664.37,345.88 666.1,339.53 692.63,339.53 691.28,345.88 " id="polygon106" style="fill:#2FF9EE"/><path d="m 650.62,313.04 -2.62,11.5 c -0.68,3.73 -2.07,5.27 -3.92,6.17 -5.57,2.71 -17.32,3.06 -25.39,3.06 h -1.36 c 0.05,-0.18 0.09,-0.37 0.15,-0.53 2.36,-0.05 8.26,-0.07 13.07,-0.49 6.43,-0.55 11.83,-1.96 13.05,-6.92 l 2.91,-12.78 h 4.11 z" id="path106" style="fill:#1FFCF8"/><polygon points="609.64,384.91 610.83,377.08 618.6,377.08 617.52,384.91 " id="polygon107" style="fill:#F22998"/><polygon points="629.58,377.08 627.49,385.52 617.42,385.52 617.52,384.91 618.6,377.08 " id="polygon108"/></g></g></svg>